<?xml version="1.0" encoding="utf-8"?>
<!DOCTYPE svg PUBLIC "-//W3C//DTD SVG 1.1//EN" "http://www.w3.org/Graphics/SVG/1.1/DTD/svg11.dtd">
<svg version="1.1" id="Layer_1" xmlns="http://www.w3.org/2000/svg" xmlns:xlink="http://www.w3.org/1999/xlink" x="0px" y="0px"
	 width="1213px" height="300px" viewBox="0 0 1213 300" enable-background="new 0 0 1213 300" xml:space="preserve">
<path fill="#2196F4" d="M241.929,0H58.038C25.982,0,0,25.984,0,58.039v183.898c0,32.049,25.982,58.031,58.038,58.031h183.895
	c32.052,0,58.034-25.982,58.034-58.034V58.039C299.967,25.984,273.984,0,241.929,0z M229.009,54.676
	c1.389-1.386,3.637-1.386,5.023,0c1.388,1.386,1.388,3.636,0,5.022l-19.698,19.699c-1.589-1.755-3.266-3.432-4.994-5.052
	L229.009,54.676z M146.432,23.413c0-1.962,1.589-3.552,3.551-3.552c1.959,0,3.554,1.59,3.554,3.552v27.432
	c-1.268-0.057-2.537-0.096-3.818-0.096c-1.101,0-2.192,0.042-3.285,0.084v-27.42H146.432z M65.936,54.676
	c1.386-1.386,3.636-1.386,5.021,0l19.411,19.411c-1.734,1.613-3.411,3.284-5.01,5.033L65.936,59.698
	C64.549,58.312,64.549,56.062,65.936,54.676z M34.676,142.272c-1.961,0-3.552-1.59-3.552-3.552c0-1.961,1.591-3.551,3.552-3.551
	h27.918c-0.03,0.924-0.073,1.844-0.073,2.775c0,1.452,0.039,2.894,0.112,4.329H34.676L34.676,142.272z M70.96,222.771
	c-0.693,0.693-1.604,1.041-2.511,1.041c-0.906,0-1.818-0.345-2.511-1.041c-1.385-1.385-1.385-3.636,0-5.021l20.185-20.184
	c1.619,1.725,3.294,3.402,5.051,4.991L70.96,222.771z M172.833,266.989h-44.636c-1.671,0-3.027-1.356-3.027-3.029
	c0-1.675,1.356-3.024,3.027-3.024h44.636c1.672,0,3.024,1.35,3.024,3.024C175.857,265.633,174.505,266.989,172.833,266.989z
	 M172.833,255.234h-44.636c-1.671,0-3.027-1.353-3.027-3.024c0-1.674,1.356-3.029,3.027-3.029h44.636
	c1.672,0,3.024,1.355,3.024,3.029C175.857,253.882,174.505,255.234,172.833,255.234z M172.833,243.48h-44.636
	c-1.671,0-3.027-1.355-3.027-3.03c0-1.672,1.356-3.023,3.027-3.023h44.636c1.672,0,3.024,1.352,3.024,3.023
	C175.857,242.125,174.505,243.48,172.833,243.48z M185.292,191.569l-2.919,30.243c-0.503,5.2-4.87,9.171-10.099,9.171h-42.458
	c-5.225,0-9.596-3.968-10.1-9.171l-2.748-28.48c-19.369-11.491-31.598-32.637-31.598-55.388c0-35.483,28.865-64.349,64.345-64.349
	c35.48,0,64.35,28.866,64.35,64.349C214.065,159.629,203.167,179.703,185.292,191.569z M234.032,222.771
	c-0.69,0.693-1.6,1.041-2.512,1.041c-0.91,0-1.814-0.345-2.512-1.041l-20.463-20.467c1.745-1.596,3.422-3.274,5.034-5.009
	l20.452,20.454C235.416,219.135,235.416,221.386,234.032,222.771z M265.29,142.272h-28.484c0.068-1.435,0.108-2.877,0.108-4.329
	c0-0.931-0.043-1.851-0.07-2.775h28.446c1.962,0,3.555,1.59,3.555,3.551C268.845,140.682,267.255,142.272,265.29,142.272z"/>
<rect x="355" y="43" fill="none" width="858" height="300"/>
<text transform="matrix(1 0 0 1 355 255.9971)" fill="#2196F4" font-family="'MyriadPro-Regular'" font-size="300">Eureka</text>
</svg>
